<svg xmlns="http://www.w3.org/2000/svg" viewBox="0 0 640 420" fill="none">
  <rect width="640" height="420" fill="#fff0f7"/>
  <rect x="34" y="34" width="572" height="352" rx="34" fill="#c22b72"/>
  <circle cx="152" cy="124" r="70" fill="#ff9dc9" opacity=".72"/>
  <circle cx="488" cy="124" r="70" fill="#ffd7e9" opacity=".72"/>
  <rect x="108" y="218" width="424" height="78" rx="20" fill="#fff" opacity=".95"/>
  <path d="M196 174a54 54 0 1 0 0-108 54 54 0 0 0 0 108Zm248 0a54 54 0 1 0 0-108 54 54 0 0 0 0 108Z" fill="#fff"/>
  <path d="M250 256h140M250 228h140" stroke="#c22b72" stroke-width="18" stroke-linecap="round"/>
  <path d="M196 192v58m-34-30h68M444 192v58m-34-30h68" stroke="#fff" stroke-width="14" stroke-linecap="round"/>
  <rect x="94" y="314" width="146" height="44" rx="12" fill="#fff" opacity=".94"/>
  <text x="114" y="343" fill="#c22b72" font-family="Inter, Arial, sans-serif" font-size="22" font-weight="800">ODD 05</text>
  <path d="M506 300c28 0 50 22 50 50H456c0-28 22-50 50-50Z" fill="#ffd7e9"/>
</svg>
