<svg xmlns="http://www.w3.org/2000/svg" viewBox="0 0 640 420" fill="none">
  <rect width="640" height="420" fill="#fff2f2"/>
  <rect x="34" y="34" width="572" height="352" rx="34" fill="#9f173d"/>
  <path d="M98 286h444v56H98v-56Z" fill="#611128"/>
  <rect x="122" y="132" width="108" height="154" rx="18" fill="#fff" opacity=".94"/>
  <rect x="266" y="84" width="108" height="202" rx="18" fill="#fff" opacity=".94"/>
  <rect x="410" y="168" width="108" height="118" rx="18" fill="#fff" opacity=".94"/>
  <path d="M154 232h44M298 132h44M442 214h44" stroke="#9f173d" stroke-width="14" stroke-linecap="round"/>
  <path d="M144 342c18-38 48-60 90-66 34-5 67 2 99 21 44 27 90 27 140 0 23-12 45-17 67-15" stroke="#ffb3c4" stroke-width="15" stroke-linecap="round"/>
  <rect x="94" y="64" width="146" height="44" rx="12" fill="#fff" opacity=".94"/>
  <text x="114" y="93" fill="#9f173d" font-family="Inter, Arial, sans-serif" font-size="22" font-weight="800">ODD 08</text>
  <circle cx="494" cy="96" r="34" fill="#f8d0db"/>
  <path d="M478 98h32m-16-16v32" stroke="#9f173d" stroke-width="10" stroke-linecap="round"/>
</svg>
