<svg xmlns="http://www.w3.org/2000/svg" viewBox="0 0 640 420" fill="none">
  <rect width="640" height="420" fill="#fff8e5"/>
  <rect x="34" y="34" width="572" height="352" rx="34" fill="#b7791f"/>
  <rect x="94" y="100" width="190" height="226" rx="20" fill="#fff" opacity=".95"/>
  <rect x="356" y="100" width="190" height="226" rx="20" fill="#fff" opacity=".95"/>
  <path d="M134 154h110M134 194h88M134 234h110" stroke="#b7791f" stroke-width="14" stroke-linecap="round"/>
  <path d="M404 176c28-42 74-40 98 0M502 176l-4-42 36 22M498 246c-28 42-74 40-98 0M400 246l4 42-36-22" stroke="#1f9d55" stroke-width="16" stroke-linecap="round" stroke-linejoin="round"/>
  <rect x="94" y="64" width="146" height="44" rx="12" fill="#fff" opacity=".94"/>
  <text x="114" y="93" fill="#b7791f" font-family="Inter, Arial, sans-serif" font-size="22" font-weight="800">ODD 12</text>
  <path d="M284 214h74" stroke="#fff6d6" stroke-width="20" stroke-linecap="round"/>
  <path d="M304 190l30 24-30 24" stroke="#fff6d6" stroke-width="14" stroke-linecap="round" stroke-linejoin="round"/>
</svg>
