<svg xmlns="http://www.w3.org/2000/svg" viewBox="0 0 640 420" fill="none">
  <rect width="640" height="420" fill="#eafbf0"/>
  <rect x="34" y="34" width="572" height="352" rx="34" fill="#178a45"/>
  <circle cx="320" cy="204" r="122" fill="#d9fbe7"/>
  <path d="M230 210c34-84 116-126 210-88 4 84-50 154-134 166-34 5-62-2-76-78Z" fill="#2dd36f"/>
  <path d="M302 276c28-72 78-120 150-146" stroke="#fff" stroke-width="16" stroke-linecap="round"/>
  <path d="M286 206c-42 8-73-6-94-42M322 176c-10-43 1-76 32-98M364 238c38 22 78 22 120 0" stroke="#178a45" stroke-width="13" stroke-linecap="round"/>
  <rect x="94" y="64" width="146" height="44" rx="12" fill="#fff" opacity=".94"/>
  <text x="114" y="93" fill="#178a45" font-family="Inter, Arial, sans-serif" font-size="22" font-weight="800">ODD 13</text>
  <path d="M128 318h104m176 0h104" stroke="#c7f9d8" stroke-width="18" stroke-linecap="round"/>
</svg>
