<svg xmlns="http://www.w3.org/2000/svg" viewBox="0 0 640 420" fill="none">
  <rect width="640" height="420" fill="#edf5ff"/>
  <rect x="34" y="34" width="572" height="352" rx="34" fill="#17417f"/>
  <path d="M178 226c42-42 86-42 132 0l38 34c34 30 72 30 106 0l48-42" stroke="#fff" stroke-width="30" stroke-linecap="round"/>
  <path d="M178 226c42-42 86-42 132 0l38 34c34 30 72 30 106 0l48-42" stroke="#f58220" stroke-width="12" stroke-linecap="round"/>
  <circle cx="158" cy="134" r="48" fill="#fff"/>
  <circle cx="320" cy="104" r="48" fill="#fff"/>
  <circle cx="482" cy="134" r="48" fill="#fff"/>
  <circle cx="224" cy="306" r="48" fill="#fff"/>
  <circle cx="416" cy="306" r="48" fill="#fff"/>
  <path d="M202 150 276 116M364 116l74 34M250 282l44-44M390 238l-44 44" stroke="#8fc0ff" stroke-width="10" stroke-linecap="round"/>
  <rect x="94" y="64" width="146" height="44" rx="12" fill="#fff" opacity=".94"/>
  <text x="114" y="93" fill="#17417f" font-family="Inter, Arial, sans-serif" font-size="22" font-weight="800">ODD 17</text>
  <path d="M300 104h40M320 84v40" stroke="#17417f" stroke-width="10" stroke-linecap="round"/>
</svg>
