<svg xmlns="http://www.w3.org/2000/svg" viewBox="0 0 640 420" fill="none">
  <rect width="640" height="420" fill="#fff7ed"/>
  <rect x="34" y="34" width="572" height="352" rx="34" fill="#d46b08"/>
  <rect x="106" y="126" width="428" height="188" rx="26" fill="#fff" opacity=".94"/>
  <rect x="138" y="164" width="130" height="112" rx="16" fill="#ffedd5"/>
  <rect x="298" y="164" width="204" height="24" rx="12" fill="#d46b08"/>
  <rect x="298" y="210" width="168" height="24" rx="12" fill="#f59e0b"/>
  <rect x="298" y="256" width="120" height="24" rx="12" fill="#fdba74"/>
  <path d="M188 220h212M203 190l74 92M203 250l74-92" stroke="#d46b08" stroke-width="10" stroke-linecap="round"/>
  <circle cx="188" cy="220" r="18" fill="#0453cb"/>
  <circle cx="276" cy="158" r="18" fill="#0453cb"/>
  <circle cx="276" cy="282" r="18" fill="#0453cb"/>
  <circle cx="400" cy="220" r="18" fill="#0453cb"/>
  <rect x="94" y="64" width="146" height="44" rx="12" fill="#fff" opacity=".94"/>
  <text x="114" y="93" fill="#d46b08" font-family="Inter, Arial, sans-serif" font-size="22" font-weight="800">ODD 09</text>
</svg>
