<?xml version="1.0" encoding="UTF-8"?>
<svg version="1.2" baseProfile="tiny-ps" xmlns="http://www.w3.org/2000/svg" viewBox="0 0 512 512">
<title>KLASSCI</title>
<rect width="512" height="512" fill="#ffffff"/>
<path fill="#0052ca" fill-rule="evenodd" d="M194.3 421.3C194.4 421.3 194.5 421 194.5 420.6C194.5 420.2 194.8 419.2 195.2 418.5C195.6 417.8 196 416.9 196 416.5C196 416.2 196.1 415.8 196.3 415.7C196.5 415.6 196.7 415 196.9 414.4C197 413.7 197.3 412.8 197.6 412.3C198.1 411.2 198.8 409.3 199.2 407.8C199.3 407.2 199.7 406.2 200.1 405.6C200.4 405 200.6 404.3 200.7 404C200.7 403.7 200.9 403.2 201.2 402.8C201.5 402.4 201.7 401.7 201.7 401.3C201.7 400.9 202 400.2 202.3 399.9C202.5 399.5 202.8 398.7 202.8 398.2C202.8 397.7 203 397.1 203.3 396.8C203.6 396.6 203.9 396.1 203.9 395.8C203.9 395.5 204.1 394.7 204.4 394.2C204.7 393.6 205 392.6 205.2 392C205.3 391.3 205.6 390.5 205.9 390.3C206.2 390.1 206.4 389.5 206.4 388.9C206.4 388.4 206.7 387.7 207 387.3C207.2 386.9 207.5 386.3 207.5 386C207.5 385.7 207.7 385 208 384.4C208.3 383.9 208.6 383.1 208.6 382.8C208.6 382.5 208.9 381.7 209.3 381.2C209.7 380.6 210 379.7 210 379.3C210 378.9 210.3 378 210.6 377.3C212 374.5 212.2 374 212.2 373.4C212.2 371.9 211.3 372 261.5 372.1L309.9 372.2L310.8 374C311.3 374.9 311.9 376.2 312.1 376.7C312.4 377.2 312.6 377.9 312.6 378.2C312.6 378.5 312.8 379.3 313.1 379.9C313.4 380.5 313.9 381.5 314.2 382.1C314.5 382.7 314.8 383.4 314.8 383.7C314.8 384 315.1 384.8 315.5 385.6C315.9 386.3 316.2 387.1 316.2 387.4C316.2 387.7 316.5 388.3 316.8 388.7C317 389.1 317.3 389.7 317.3 390C317.3 390.4 317.5 391.1 317.8 391.7C318.1 392.4 318.6 393.4 318.9 394C319.2 394.6 319.4 395.3 319.4 395.7C319.4 396 319.8 396.8 320.2 397.4C320.6 397.9 320.9 398.8 320.9 399.2C320.9 399.5 321.1 400.2 321.4 400.6C321.7 401 322 401.6 322 402.1C322 402.5 322.2 403 322.5 403.3C322.8 403.5 323 404.1 323 404.5C323 405 323.3 405.6 323.6 406C323.9 406.4 324.1 407 324.1 407.3C324.1 407.6 324.4 408.4 324.8 409.1C325.2 409.9 325.6 410.8 325.6 411.2C325.6 411.5 325.8 412 326.1 412.3C326.4 412.5 326.6 413.2 326.6 413.7C326.6 414.3 326.9 414.9 327.2 415.2C327.5 415.4 327.7 415.9 327.7 416.3C327.7 416.7 327.9 417.4 328.2 417.8C328.4 418.2 328.8 419.2 329 419.9L329.4 421.1L362.1 421.3C397.8 421.5 396.2 421.6 395.1 419.3C393.3 415.4 392.9 414.5 392.9 414C392.9 413.7 392.6 413.3 392.3 413C392 412.8 391.8 412.2 391.8 411.8C391.8 411.3 391.6 410.7 391.3 410.3C391 409.9 390.7 409.2 390.7 408.8C390.7 408.4 390.5 407.9 390.2 407.6C389.9 407.4 389.6 406.9 389.6 406.6C389.6 406.1 388.8 404 387.6 401.8C387.3 401.3 387.1 400.5 387.1 400.1C387.1 399.7 386.9 399.2 386.6 399C386.3 398.7 386 398.3 386 398C386 397.4 385.1 395.1 384 393.2C383.8 392.6 383.5 392 383.5 391.7C383.5 391.4 383.3 390.7 383 390.1C382.5 389.1 381.8 387.5 380.9 385.2C380.6 384.6 380.1 383.3 379.6 382.4C379.2 381.5 378.8 380.5 378.8 380.2C378.8 379.9 378.6 379.4 378.3 379.2C378 378.9 377.8 378.4 377.8 378C377.8 377.6 377.5 376.9 377.3 376.3C377 375.8 376.5 374.9 376.2 374.2C375.9 373.5 375.6 372.8 375.6 372.6C375.6 372.3 374.7 370.1 373.6 367.9C373.3 367.3 373.1 366.6 373.1 366.2C373.1 365.9 372.8 365.4 372.5 365.1C372.2 364.9 372 364.4 372 364C372 363.6 371.7 362.6 371.2 361.8C369.7 358.8 369.5 358.4 369.5 357.7C369.5 357.3 369.2 356.7 368.9 356.5C368.6 356.2 368.4 355.8 368.4 355.4C368.4 355 368.2 354.3 367.9 353.7C367.6 353.2 367.2 352.1 366.9 351.5C366.6 350.8 366 349.5 365.6 348.6C365.2 347.7 364.8 346.7 364.8 346.4C364.8 346 364.6 345.6 364.3 345.3C364 345.1 363.7 344.6 363.7 344.2C363.7 343.8 363.5 343 363.2 342.5C362.2 340.6 361.2 338.2 361.2 337.7C361.2 337.4 361 336.9 360.7 336.7C360.4 336.4 360.1 335.9 360.1 335.5C360.1 335 359.9 334.4 359.6 334C359.3 333.6 359.1 332.9 359.1 332.5C359 332.1 358.8 331.5 358.5 331.3C358.2 331 358 330.6 358 330.3C358 329.8 357.1 327.7 355.9 325.5C355.7 325 355.4 324.2 355.4 323.8C355.4 323.4 355.2 322.9 354.9 322.7C354.6 322.4 354.4 322 354.4 321.6C354.4 321.1 353.4 318.8 352.4 316.8C352.1 316.3 351.8 315.6 351.8 315.3C351.8 315 351.6 314.3 351.3 313.8C350.9 312.8 350.3 311.5 349.1 308.8C348.9 308.2 348.3 307 347.9 306.1C347.5 305.2 347.2 304.2 347.2 303.9C347.2 303.6 346.9 303.1 346.6 302.9C346.3 302.6 346.1 302.1 346.1 301.7C346.1 301.2 345.4 299.5 344.3 297.4C344.1 297 343.9 296.6 343.9 296.3C343.9 295.9 343 293.9 341.9 291.6C341.6 291 341.4 290.3 341.4 289.9C341.4 289.6 341.2 289.1 340.9 288.8C340.6 288.6 340.3 288.1 340.3 287.7C340.3 287.3 340 286.3 339.5 285.5C338 282.5 337.8 282 337.8 281.3C337.8 280.9 337.6 280.4 337.3 280.2C337 279.9 336.7 279.5 336.7 279.3C336.7 279 336.4 278 336 277.1C335.6 276.1 335 274.7 334.7 274.1C334.4 273.4 333.9 272.3 333.7 271.8C333.4 271.2 333.1 270.5 333.1 270.1C333.1 269.8 332.9 269.3 332.6 269C332.3 268.8 332 268.2 332 267.9C332 267.5 331.8 266.7 331.5 266.2C330.5 264.3 329.5 261.9 329.5 261.4C329.5 261.1 329.3 260.6 329 260.4C328.7 260.1 328.4 259.6 328.4 259.1C328.4 258.7 328.2 258 327.9 257.7C327.6 257.3 327.4 256.6 327.4 256.2C327.4 255.8 327.1 255.2 326.8 255C326.5 254.7 326.3 254.3 326.3 254C326.3 253.5 325.4 251.3 324.3 249.2C324 248.6 323.8 247.9 323.8 247.5C323.8 247.1 323.5 246.6 323.2 246.3C322.9 246.1 322.7 245.6 322.7 245.3C322.7 244.8 322.1 243.4 320.6 240.5C320.4 240 320.2 239.2 320.2 238.9C320.2 238.5 319.9 237.9 319.6 237.7C319.3 237.4 319.1 236.9 319.1 236.4C319.1 236 318.8 235.4 318.5 235.2C318.2 234.9 318 234.4 318 234C318 233.6 317.8 232.9 317.5 232.3C316.5 230.4 315.5 228.1 315.5 227.5C315.5 227.2 315.2 226.8 314.9 226.5C314.6 226.3 314.4 225.8 314.4 225.4C314.4 224.8 313.7 223.2 312.6 221C312.4 220.7 312.2 220.2 312.2 220C312.2 219.8 311.9 218.8 311.5 217.9C311.1 217 310.5 215.7 310.2 215C309.9 214.3 309.4 213.3 309.2 212.7C308.9 212.2 308.6 211.5 308.6 211.2C308.6 210.9 308.3 210 307.9 209.1C306.3 206.1 306.1 205.7 306.1 205C306.1 204.6 305.9 204.1 305.6 203.9C305.3 203.6 305 203.2 305 203C305 202.7 304.7 201.7 304.3 200.7C303.9 199.8 303.3 198.4 303 197.7C302.7 197 302.3 196 302 195.5C301.7 194.9 301.4 194.1 301.4 193.8C301.4 193.4 301.2 192.9 300.9 192.7C300.6 192.4 300.4 191.9 300.4 191.5C300.4 191.1 300.1 190.4 299.9 189.9C298.8 187.9 297.8 185.6 297.8 185.1C297.8 184.8 297.6 184.3 297.3 184.1C297 183.8 296.8 183.3 296.8 182.9C296.8 182.5 296.5 181.8 296.3 181.2C296 180.7 295.5 179.7 295.2 179.1C294.9 178.4 294.6 177.7 294.6 177.4C294.6 177.2 294.3 176.4 293.9 175.7C293.5 174.9 293.2 174.1 293.2 173.8C293.2 173.6 292.9 173 292.5 172.6L291.9 171.8L262.9 171.8L233.9 171.8L233.8 172.7C233.8 173.2 233.5 173.8 233.2 174C232.9 174.2 232.7 174.8 232.7 175.2C232.7 175.7 232.4 176.2 232.1 176.5C231.8 176.7 231.6 177.1 231.6 177.4C231.6 177.6 231.3 178.6 230.9 179.6C230.4 180.6 229.9 181.9 229.6 182.6C229.3 183.3 228.8 184.3 228.5 184.9C228.2 185.5 228 186.2 228 186.6C228 186.9 227.8 187.4 227.5 187.7C227.2 187.9 226.9 188.4 226.9 188.7C226.9 189.2 226 191.5 224.9 193.5C224.6 194 224.4 194.7 224.4 195.1C224.4 195.5 224.2 196 223.9 196.3C223.6 196.5 223.3 197.1 223.3 197.6C223.3 198 223.1 198.6 222.8 198.8C222.5 199.1 222.2 199.6 222.2 200C222.2 200.3 221.9 201.2 221.5 202C221.2 202.7 220.6 204 220.3 204.8C220 205.5 219.5 206.7 219.2 207.2C218.9 207.8 218.6 208.5 218.6 208.9C218.6 209.2 218.4 209.7 218.1 210C217.8 210.2 217.6 210.7 217.6 211.1C217.6 211.5 217.3 212.3 217.1 212.8C215.7 215.3 215 216.9 215 217.5C215 217.9 214.8 218.4 214.5 218.6C214.2 218.9 214 219.3 214 219.7C214 220 213.7 220.6 213.4 221C213.1 221.4 212.9 221.9 212.9 222.2C212.9 222.4 212.6 223.3 212.2 224.2C211.8 225 211.2 226.3 210.9 227.1C210.6 227.9 210.1 229 209.8 229.5C209.5 230.1 209.3 230.8 209.3 231C209.3 231.3 209.1 232 208.8 232.5C208.5 233.1 207.9 234.4 207.5 235.4C207 236.3 206.4 237.6 206.2 238.1C205.9 238.6 205.7 239.4 205.7 239.8C205.7 240.2 205.4 240.7 205.1 240.9C204.8 241.2 204.6 241.7 204.6 242C204.6 242.3 204.4 242.9 204.1 243.3C203.8 243.7 203.5 244.2 203.5 244.5C203.5 244.8 203.2 245.7 202.8 246.7C202.3 247.6 201.7 248.9 201.4 249.6C201.2 250.3 200.7 251.3 200.4 251.9C200.1 252.4 199.9 253 199.9 253.3C199.9 253.5 199.6 254.4 199.2 255.3C198.1 257.6 197.4 259.3 196.9 260.6C196.3 262 195.5 263.8 194.6 265.8C194.1 266.7 193.8 267.6 193.8 267.9C193.8 268.2 193.5 268.8 192.2 271.5C191.9 272.1 191.6 273 191.6 273.3C191.6 273.7 191.4 274.2 191.1 274.4C190.8 274.7 190.6 275.1 190.6 275.4C190.6 275.7 190.2 276.7 189.8 277.6C188.9 279.6 188.1 281.4 187.4 283.1C187.1 283.7 186.7 284.8 186.4 285.4C186.2 286 185.6 287.4 185.2 288.5C183.8 291.7 183.3 292.9 182.8 294C182.5 294.5 182.3 295.3 182.3 295.6C182.3 296 182 296.5 181.7 296.7C181.4 297 181.2 297.5 181.2 297.8C181.2 298.2 180.9 299 180.5 299.7C180.1 300.3 179.8 301.1 179.8 301.5C179.8 301.8 179.5 302.2 179.2 302.5C178.9 302.7 178.7 303.3 178.7 303.7C178.7 304 178.5 304.8 178.2 305.3C177.1 307.5 176.2 309.6 176.2 310.1C176.2 310.4 175.9 310.9 175.6 311.1C175.3 311.4 175.1 311.9 175.1 312.2C175.1 312.6 174.9 313.3 174.6 313.9C174.3 314.5 173.9 315.5 173.6 316.2C173.3 316.9 172.8 318 172.5 318.7C172.2 319.4 171.6 320.8 171.1 321.9C170.7 323 170.1 324.5 169.8 325.2C169.5 325.9 169 327 168.7 327.7C168.4 328.4 167.9 329.6 167.5 330.3C167.1 331 166.8 331.9 166.8 332.3C166.8 332.7 166.6 333.2 166.3 333.5C166 333.7 165.7 334.2 165.7 334.5C165.7 334.9 165.5 335.7 165.2 336.2C165 336.8 164.5 337.8 164.2 338.6C163.8 339.3 163.4 340.5 163.1 341.1C162.8 341.7 162.2 343.2 161.8 344.3C159.5 349.8 158.9 351.2 158.1 352.6C157.8 353.3 157.4 354.2 157.4 354.6C157.4 355 157.2 355.5 156.9 355.8C156.6 356 156.4 356.5 156.4 356.9C156.4 357.2 156.1 358 155.9 358.5C155.4 359.6 154.8 360.9 153.5 363.8C153.1 364.7 152.8 365.7 152.8 366C152.8 366.3 152.5 366.7 152.2 366.9C151.9 367.2 151.7 367.7 151.7 368.1C151.7 368.5 151.5 369.2 151.2 369.8C150.9 370.3 150.4 371.4 150.1 372.2C149.7 372.9 149.2 374.2 148.8 374.9C148.4 375.7 148.1 376.6 148.1 376.9C148.1 377.3 147.8 377.8 147.5 378.1C147.2 378.3 147 378.8 147 379.2C147 379.5 146.8 380.3 146.5 380.9C144.7 384.6 143.4 387.7 143.4 388.3C143.4 388.6 143.2 389 142.9 389.3C142.6 389.5 142.3 390 142.3 390.4C142.3 390.8 142.1 391.6 141.8 392.1C141.6 392.6 141.1 393.6 140.8 394.3C140.5 395 139.9 396.3 139.5 397.2C139.1 398.1 138.7 399.1 138.7 399.4C138.7 399.7 138.5 400.2 138.2 400.4C137.9 400.7 137.6 401.2 137.6 401.6C137.6 402 137.4 402.7 137.2 403.2C136.4 404.8 135.2 407.3 134.6 408.9C134.3 409.7 133.8 410.8 133.5 411.3C133.2 411.9 133 412.6 133 412.9C133 413.2 132.7 413.9 132.5 414.4C131.8 415.7 130.9 417.7 130.5 418.8C130.3 419.3 129.9 420 129.6 420.3C129.3 420.8 129.3 421 129.6 421.2C129.9 421.4 172.3 421.5 194.3 421.3ZM231 323.8C230.6 323.6 230.7 323.1 231.3 321.6C231.7 320.5 232.2 319 232.4 318.3C232.6 317.6 232.9 316.9 233 316.7C233.2 316.5 233.5 315.8 233.7 315.1C233.9 314.4 234.4 312.9 234.8 311.9C235.3 310.8 235.8 309.3 236 308.6C236.2 307.9 236.5 307.2 236.6 307C236.7 306.8 237.2 305.4 237.8 303.9C238.3 302.4 239.1 300.3 239.5 299.3C239.9 298.2 240.5 296.7 240.7 296C240.9 295.3 241.1 294.6 241.3 294.4C241.5 294.1 242.6 291.1 244.1 286.8C244.4 286 244.7 285.1 244.9 284.7C245.2 283.9 248 276.5 248.8 274.2C249 273.4 249.4 272.5 249.6 272.1C249.7 271.7 250.7 269 251.8 266.1C252.8 263.3 253.8 260.3 254.1 259.7C254.4 259 255.2 256.9 255.9 255.1C256.6 253.2 257.2 251.5 257.2 251.2C257.2 250.9 257.3 250.6 257.5 250.5C257.7 250.4 257.9 249.9 258 249.3C258.3 248.3 260.3 242.9 261.4 240.5C262.2 238.6 262.5 238.9 263.6 242.2C264.1 243.8 264.7 245.2 264.8 245.4C264.9 245.6 265.2 246.4 265.4 247.1C265.6 247.7 266.1 249.2 266.5 250.3C266.9 251.4 267.5 252.9 267.8 253.7C268.2 255.1 270.3 260.9 271.4 263.8C271.7 264.6 272.2 265.9 272.4 266.7C272.7 267.5 273.5 269.7 274.3 271.7C275 273.7 275.7 275.7 275.9 276.2C276.1 276.7 276.8 278.7 277.5 280.7C278.2 282.7 279.1 285 279.3 285.8C279.6 286.5 280.1 288.1 280.6 289.2C281 290.3 281.5 291.7 281.7 292.4C281.9 293.1 282.2 293.8 282.3 294C282.6 294.5 283.7 297.6 284.1 299.1C284.3 299.7 284.8 301 285.2 302.1C285.7 303.2 286.2 304.8 286.5 305.6C286.8 306.3 287.3 307.9 287.7 309C288.2 310.1 288.8 311.9 289.2 313.1C290 315.5 291.2 318.6 291.9 320.3C292.2 321 292.5 322 292.5 322.7L292.6 323.9L262 324C245.2 324 231.2 324 231 323.8ZM408.9 306C409.2 305.5 409.5 303.8 409.6 301.4C409.8 299.3 410.1 297.4 410.3 297.2C410.4 296.9 410.7 295.2 410.8 293.2C410.9 288.8 411 288.8 412.5 288.8L413.8 288.8L415.5 291.4C416.4 292.8 417.6 294.6 418.1 295.3C418.6 296 419.3 297.2 419.8 297.8C420.2 298.5 420.9 299.6 421.3 300.2C421.7 300.7 422.4 301.8 422.8 302.4C423.2 303 423.6 303.6 423.8 303.6C424.1 303.6 423.7 300.3 423.2 299.3C422.7 298 421.5 293.7 420.5 289.3C420 287.3 419.5 285.5 418.7 283.4C418.5 282.9 418.2 281.5 417.9 280.3C416.6 274.6 416.4 273.8 416.2 273.5C415.8 272.8 413.1 262.6 412.2 258.3C411.9 257 411.5 255.8 411.3 255.6C411.1 255.4 410.9 254.7 410.9 254.2C410.9 251.1 405.5 252.2 405.2 255.4C405.2 256.2 404.9 257.8 404.8 258.8C404.6 259.7 404.2 261.6 404 262.9C403.8 264.2 403.4 266 403.1 267C402.8 267.9 402.6 269.4 402.6 270.3C402.6 271.1 402.5 271.9 402.3 272.1C402.1 272.2 401.8 273.4 401.7 274.7C401.5 276 401.3 277.4 401.1 277.7C400.9 278.1 400.7 279.1 400.6 279.9C400.3 282 400 283.7 398.1 294C397.8 295.6 397.3 298.1 397.1 299.6C396.8 301.1 396.4 302.7 396.2 303.1C395.7 303.9 395.6 306.2 396 306.5C396.1 306.7 398.9 306.8 402.3 306.8L408.3 306.8L408.9 306ZM410.7 246.4C410.8 246.2 411.3 246 411.9 245.9C413.1 245.6 417.1 241.7 417.6 240.3C419.1 236.3 419 234.5 417.3 231.2C416.3 229 412.4 225.9 410.6 225.6C407.5 225.1 404.3 225.6 402.9 226.6C402.2 227.2 401.5 227.6 401.3 227.6C399.8 227.6 396.7 234.3 397.1 236.7C398 242.4 402.6 246.6 408.1 246.7C409.4 246.7 410.6 246.6 410.7 246.4ZM409.6 204.6L409.6 190L408.4 190C406.1 190.2 406.2 189.6 406.2 204.9C406.2 220.1 406.1 219.4 408.2 219.3L409.6 219.2L409.6 204.6ZM166.8 185.4L166.8 172.7L167.5 171.1C169.5 166.9 173.5 163.5 180.5 160.1C182 159.4 183.5 158.6 183.8 158.5C185.3 157.7 192.1 155.4 194 155C194.8 154.9 196 154.6 196.6 154.3C197.3 154 198.4 153.8 199 153.7C199.6 153.7 200.5 153.5 201 153.3C201.9 152.8 203.5 152.4 208.6 151.5C210 151.2 212.1 150.8 213.1 150.6C214.1 150.4 215.8 150.2 216.9 150.2C218 150.2 219.4 150 219.9 149.7C220.6 149.4 222.5 149.1 225.3 149C227.7 148.9 230 148.7 230.4 148.5C232 147.6 274.6 146.4 275.7 147.3C275.9 147.5 279.5 147.7 283.8 147.9C288.1 148 291.8 148.3 292.2 148.5C292.6 148.7 294.6 148.9 296.7 149C299 149.1 300.9 149.4 301.5 149.7C302 150 303.4 150.2 304.6 150.2C305.7 150.2 307.5 150.4 308.5 150.6C309.5 150.8 311.4 151.2 312.8 151.4C314.2 151.7 315.5 152 315.8 152.1C316.1 152.2 317.6 152.5 319.1 152.8C322.4 153.5 325.7 154.3 327.2 154.8C327.8 155 329.2 155.5 330.2 155.8C336.2 157.6 344.8 161.6 347.1 163.6C347.7 164.2 348.4 164.6 348.5 164.6C349.2 164.6 352 167.9 353.2 170L354.5 172.4L354.6 185.3C354.8 199.6 354.7 199.1 356.9 198.3C359 197.5 361.8 196.7 363.5 196.3C364.3 196.1 366.3 195.6 367.9 195C369.4 194.5 371.5 193.9 372.4 193.7C373.3 193.6 374.2 193.3 374.5 193.2C375.3 192.8 378 192 380.3 191.4C382.6 190.8 385.4 190 387.1 189.4C390.6 188.2 391.3 188 391.9 188C392.2 188 393.9 187.5 395.7 187C397.4 186.4 399.5 185.8 400.3 185.7C401.1 185.5 402 185.2 402.4 185.1C403.1 184.7 405.5 184 408.7 183.2C409.8 182.9 411.6 182.4 412.7 182.1C413.8 181.7 415.6 181.2 416.6 181C418.6 180.5 419.9 180.1 422.4 179.2C423.1 178.9 424.3 178.6 425.1 178.5C425.9 178.3 426.9 178.1 427.3 177.9C427.7 177.8 429.2 177.3 430.6 176.8C433.8 175.9 434 175.6 431.9 174.9C430.9 174.6 429.7 174.2 429.1 173.9C428.5 173.6 426.8 172.8 425.3 172.2C423.8 171.6 422.1 170.9 421.5 170.6C419.2 169.6 415.3 167.9 413 166.9C411.8 166.4 409.9 165.6 408.9 165.1C407.9 164.6 406.9 164.3 406.6 164.3C406.4 164.3 405.6 163.9 404.9 163.6C402.2 162.2 398.7 160.7 398.3 160.7C398 160.7 397.4 160.4 396.9 160.1C395.4 159.4 391.8 157.7 390.3 157.2C389.6 157 388.7 156.6 388.3 156.4C388 156.2 387 155.8 386.2 155.4C385.4 155.1 384.1 154.5 383.3 154.1C382.5 153.8 381.7 153.5 381.6 153.5C381.3 153.5 379.9 152.8 375.8 150.9C375 150.5 374.2 150.2 374 150.2C373.9 150.2 372.9 149.8 371.8 149.3C370.7 148.8 369 148 367.9 147.5C366.8 147 365.7 146.6 365.4 146.6C365.2 146.6 364.6 146.4 364.3 146.1C363.9 145.9 362.2 145.1 360.7 144.5C356.7 142.8 354.8 142 352.9 141.1C352 140.7 350 139.9 348.4 139.2C346.8 138.6 344.4 137.5 343.1 136.9C341.8 136.3 340.5 135.8 340.3 135.8C340.2 135.8 339.6 135.6 339 135.3C337.5 134.5 333.2 132.6 332.9 132.6C332.8 132.6 332.2 132.3 331.6 132.1C330.9 131.8 329 131 327.4 130.2C325.7 129.5 323.5 128.5 322.4 128C321.4 127.6 320.4 127.2 320.3 127.2C320.1 127.2 319.5 126.9 318.9 126.6C318.3 126.3 316.7 125.6 315.3 125C313.9 124.5 311.7 123.5 310.4 122.9C309.1 122.3 307.9 121.8 307.6 121.8C307.4 121.8 306.8 121.5 306.2 121.2C304.1 120.1 298.1 117.5 297.8 117.5C297.6 117.5 296.2 116.9 294.7 116.2C293.2 115.5 291.8 114.9 291.6 114.9C291.4 114.9 290.8 114.7 290.5 114.4C290.1 114.2 289.3 113.8 288.9 113.7C288.4 113.5 286.5 112.7 284.7 111.8C282.8 111 281.2 110.3 281 110.3C280.8 110.3 279.4 109.7 277.9 109C276.4 108.3 275.1 107.7 274.9 107.7C274.8 107.7 273.9 107.3 272.9 106.9C268.9 105 266.8 104.1 266.5 104.1C266.4 104.1 265.7 103.9 265 103.5C261.3 101.6 261.7 101.7 259.4 102.7C258.5 103.1 257.4 103.6 257.1 103.8C256.7 104 256.3 104.1 256.1 104.1C255.9 104.1 254.5 104.7 253 105.4C251.5 106.1 250.1 106.7 249.9 106.7C249.7 106.7 248.2 107.2 246.4 108C244.7 108.7 242.4 109.6 241.3 110.1C240.2 110.5 237.4 111.7 235 112.6C232.6 113.5 230 114.6 229.1 115C228.2 115.4 225.8 116.4 223.9 117.2C221.9 117.9 219.8 118.8 219.1 119.1C218.5 119.4 217.9 119.6 217.7 119.6C217.5 119.6 217 119.8 214.1 121.1C213.5 121.3 212.3 121.8 211.4 122.1C209.2 123 202.5 125.7 201.8 126.1C201.5 126.2 200.2 126.7 199 127.2C197.8 127.6 196.5 128.2 196 128.4C195.5 128.7 194.6 129 194 129.1C193.4 129.3 191.9 129.9 190.7 130.4C189.5 131 188.2 131.5 188 131.5C187.8 131.5 187.2 131.7 186.7 132C184.9 132.9 183.2 133.6 182.3 133.9C181.8 134 180.6 134.5 179.6 134.9C178.6 135.4 177.3 135.9 176.7 136.1C176.1 136.3 173.4 137.4 170.8 138.5C168.1 139.6 165.4 140.7 164.8 140.9C164.2 141.1 162.9 141.6 161.8 142.1C160.8 142.6 159.8 143 159.5 143C159.3 143 158 143.6 156.6 144.2C155.2 144.9 153.6 145.5 153 145.7C152.5 145.8 151.2 146.3 150.1 146.8C146.9 148.2 146.2 148.5 144.5 149.1C142.5 149.9 130.3 154.8 128.8 155.4C128.2 155.7 127 156.2 126.1 156.5C125.2 156.9 123.8 157.5 123 157.8C122.2 158.2 121.4 158.5 121.2 158.5C121.1 158.5 120.4 158.7 119.7 159.1C119 159.4 117.9 159.8 117.3 160.1C116.7 160.3 114.3 161.3 111.9 162.3C99.8 167 96.6 168.3 94.9 169.1C93.8 169.6 92.8 170 92.5 170C92.3 170 91.4 170.3 90.6 170.7C89.9 171.1 88.2 171.9 86.8 172.3C85.5 172.8 83.8 173.5 82.9 173.9C82 174.3 80.8 174.7 80.1 174.9C78 175.3 78.1 176 80.4 176.5C83.4 177.1 85.2 177.6 85.6 177.9C85.8 178.1 87 178.3 88.1 178.5C90.4 178.7 93.2 179.5 95.1 180.4C95.7 180.7 96.3 180.9 96.4 180.7C96.6 180.6 97.4 180.7 98.3 181C99.3 181.3 101 181.8 102.2 182.1C103.4 182.4 105.3 182.8 106.5 183.1C107.7 183.4 109.4 183.8 110.3 184.1C111.2 184.3 112.5 184.6 113.2 184.9C113.9 185.1 115.4 185.5 116.6 185.8C118.8 186.3 121.5 186.9 124.3 187.7C125.2 187.9 126.5 188.3 127.1 188.6C127.7 188.9 128.7 189.1 129.4 189.1C130 189.1 130.8 189.3 131.3 189.5C131.7 189.7 132.9 190.1 134 190.4C135.1 190.6 137 191.1 138.2 191.4C139.4 191.7 141.2 192.1 142.1 192.3C144.1 192.8 146.4 193.4 149.4 194.3C150.4 194.6 151.6 194.9 151.9 194.9C152.3 194.9 152.9 195.1 153.3 195.3C153.7 195.6 155 195.9 156.1 196.1C157.2 196.2 158.2 196.5 158.3 196.6C158.4 196.8 159.3 197 160.2 197.2C161.2 197.3 162.8 197.7 163.9 198.1C167 199.1 166.8 199.8 166.8 185.4Z"/>
</svg>
